<?xml version="1.0" encoding="UTF-8" standalone="no"?>
<!DOCTYPE svg PUBLIC "-//W3C//DTD SVG 1.1//EN" "http://www.w3.org/Graphics/SVG/1.1/DTD/svg11.dtd">
<svg width="100%" height="100%" viewBox="0 0 3508 2481" version="1.1" xmlns="http://www.w3.org/2000/svg" xmlns:xlink="http://www.w3.org/1999/xlink" xml:space="preserve" xmlns:serif="http://www.serif.com/" style="fill-rule:evenodd;clip-rule:evenodd;stroke-linejoin:round;stroke-miterlimit:2;">
    <path d="M935.436,2241.58C935.436,2241.58 678.951,2241.06 611.956,2242.87C573.231,2243.92 535.671,2227.64 522.789,2179.61C504.002,2109.57 481.786,1938.93 474.088,1737.01C465.493,1511.57 510.77,1142.11 624.24,872.737C902.201,212.873 1141.42,265.692 1141.42,265.692L1134.92,696.381C1134.92,696.381 1131.8,729.096 1153.83,748.047C1185.51,775.299 1197.18,769.848 1197.18,769.848L1730.5,772.182C1730.5,772.182 1760.49,775.331 1778.85,756.637C1806.95,728.019 1804.12,716.669 1804.12,716.669L1805.75,677.596L1812.85,670.372C1812.85,670.372 1994.85,883.182 2294.33,766.169C2657.72,624.185 2675.28,210.269 2722.34,92.497C2744.17,37.872 2824.78,16.427 2894.8,77.797C2967.83,141.795 3026.32,332.633 3023.86,474.03C3017.5,838.379 2718.94,1247.15 2731,1655.06C2740.57,1979.05 2844.59,2142.57 2891.21,2232.55C2894.74,2239.36 2882.99,2243.98 2880.13,2244C2840.28,2244.29 2707.63,2244.57 2707.63,2244.57C2707.63,2244.57 2700.21,2054.06 2522.19,2054.55C2331.86,2055.06 2325.01,2243.92 2325.01,2243.92L2002.45,2243.38L2002,2052.8C2002,2052.8 2005.15,2027.71 1986.5,2014.43C1973.91,2005.47 1930.23,2006.84 1930.23,2006.84L999.971,2006.72C999.971,2006.72 963.114,2004.08 946.639,2021.04C934.22,2033.83 936.595,2067.07 936.595,2067.07L935.436,2241.58ZM2685.14,1348.88C2675.39,1348.88 2667.48,1356.79 2667.48,1366.54C2667.48,1376.28 2675.39,1384.2 2685.14,1384.2C2694.89,1384.2 2702.8,1376.28 2702.8,1366.54C2702.8,1356.79 2694.89,1348.88 2685.14,1348.88ZM2769.36,2146.62C2759.62,2146.62 2751.7,2154.53 2751.7,2164.28C2751.7,2174.02 2759.62,2181.93 2769.36,2181.93C2779.11,2181.93 2787.02,2174.02 2787.02,2164.28C2787.02,2154.53 2779.11,2146.62 2769.36,2146.62ZM2816.41,105.812C2806.66,105.812 2798.75,113.725 2798.75,123.472C2798.75,133.218 2806.66,141.131 2816.41,141.131C2826.16,141.131 2834.07,133.218 2834.07,123.472C2834.07,113.725 2826.16,105.812 2816.41,105.812ZM2156.21,2146.77C2146.46,2146.77 2138.55,2154.68 2138.55,2164.43C2138.55,2174.18 2146.46,2182.09 2156.21,2182.09C2165.95,2182.09 2173.87,2174.18 2173.87,2164.43C2173.87,2154.68 2165.95,2146.77 2156.21,2146.77ZM1847.77,787.583C1838.02,787.583 1830.11,795.496 1830.11,805.243C1830.11,814.989 1838.02,822.902 1847.77,822.902C1857.51,822.902 1865.42,814.989 1865.42,805.243C1865.42,795.496 1857.51,787.583 1847.77,787.583ZM1007.48,1117.73C997.735,1117.73 989.822,1125.64 989.822,1135.39C989.822,1145.14 997.735,1153.05 1007.48,1153.05C1017.23,1153.05 1025.14,1145.14 1025.14,1135.39C1025.14,1125.64 1017.23,1117.73 1007.48,1117.73ZM1052.79,350.955C1043.04,350.955 1035.13,358.867 1035.13,368.614C1035.13,378.361 1043.04,386.273 1052.79,386.273C1062.53,386.273 1070.45,378.361 1070.45,368.614C1070.45,358.867 1062.53,350.955 1052.79,350.955ZM1877.48,934.212C1877.48,921.543 1867.19,911.257 1854.52,911.257L1077.35,911.257C1064.68,911.257 1054.39,921.543 1054.39,934.212L1054.39,1338.69C1054.39,1351.36 1064.68,1361.64 1077.35,1361.64L1854.52,1361.64C1867.19,1361.64 1877.48,1351.36 1877.48,1338.69L1877.48,934.212ZM597.673,2146.13C587.926,2146.13 580.013,2154.04 580.013,2163.79C580.013,2173.53 587.926,2181.45 597.673,2181.45C607.419,2181.45 615.332,2173.53 615.332,2163.79C615.332,2154.04 607.419,2146.13 597.673,2146.13ZM1927.95,1116.95C1918.21,1116.95 1910.29,1124.86 1910.29,1134.61C1910.29,1144.35 1918.21,1152.26 1927.95,1152.26C1937.7,1152.26 1945.61,1144.35 1945.61,1134.61C1945.61,1124.86 1937.7,1116.95 1927.95,1116.95ZM570.997,1379.9C561.251,1379.9 553.338,1387.82 553.338,1397.56C553.338,1407.31 561.251,1415.22 570.997,1415.22C580.744,1415.22 588.657,1407.31 588.657,1397.56C588.657,1387.82 580.744,1379.9 570.997,1379.9Z"/>
</svg>
